/* XPM */
static char *cry__[] = {
/* columns rows colors chars-per-pixel */
"40 15 8 1",
"  c None",
". c #00FFFF",
"X c #00CCFF",
"o c #0099FF",
"O c #0066FF",
"+ c #FFFF00",
"@ c #313131",
"# c #000000",
/* pixels */
"                 @@@@@                  ",
"               @@+++++@@                ",
"       .XO    @+++++++++@    O.         ",
"        O    @+++++++++++@  XO          ",
"             @+++++++++++@              ",
"            @+++@@+++@@+++@          .  ",
"           ####+@@+++@@+####            ",
" X        #++++##++++o##++++#           ",
"          #++++#+o+++++#++++#           ",
"          #+++#+++++++++#+++#           ",
"           ###++++@@@++++###            ",
"             @+++#+++#+++@              ",
"              @+++++++++@               ",
"               @@+++++@@                ",
"                 @@@@@                  "
};
