/* XPM */
static char *evil[] = {
/* columns rows colors chars-per-pixel */
"19 23 256 2",
"   c #FFFFFF",
".  c None",
"X  c #59FFC8",
"o  c #6384FF",
"O  c #000000",
"+  c #000000",
"@  c #000000",
"#  c #000000",
"$  c #55005C",
"%  c #004200",
"&  c #490047",
"*  c #004700",
"=  c #520049",
"-  c #004E00",
";  c #2E0047",
":  c #004900",
">  c #460000",
",  c #003300",
"<  c #300033",
"1  c #002D00",
"2  c #300030",
"3  c #003000",
"4  c #30002D",
"5  c #003000",
"6  c #300030",
"7  c #003000",
"8  c #2D0000",
"9  c #000000",
"0  c #0290FC",
"q  c #BF0000",
"w  c #0000A6",
"e  c #ED5600",
"r  c #6CED56",
"t  c #00143F",
"y  c #F7BF03",
"u  c #000000",
"i  c #FB41F7",
"p  c #BF9094",
"a  c #FCBFEA",
"s  c #CDF7BF",
"d  c #9094FC",
"f  c #BFA8F1",
"g  c #5600A3",
"h  c #ED5600",
"j  c #000000",
"k  c #004CED",
"l  c #560000",
"z  c #000000",
"x  c #32A158",
"c  c #0084ED",
"v  c #5600E2",
"b  c #13F7BF",
"n  c #5F0100",
"m  c #00C512",
"M  c #F7BF00",
"N  c #695600",
"B  c #00C08E",
"V  c #D3A62E",
"C  c #F9BFE2",
"Z  c #13F7BF",
"A  c #5F0100",
"S  c #00C512",
"D  c #F7BFA0",
"F  c #710000",
"G  c #080000",
"H  c #002C51",
"J  c #F7BF03",
"K  c #430000",
"L  c #A8F156",
"P  c #000000",
"I  c #0000DC",
"U  c #2D6900",
"Y  c #000000",
"T  c #0030A1",
"R  c #580038",
"E  c #2E4046",
"W  c #415433",
"Q  c #320000",
"!  c #B0433A",
"~  c #5C0000",
"^  c #000200",
"/  c #000800",
"(  c #000054",
")  c #F05600",
"_  c #000000",
"`  c #009B8D",
"'  c #F8BF00",
"]  c #020000",
"[  c #20EE56",
"{  c #007C26",
"}  c #F37FFC",
"|  c #ED5600",
" . c #A02166",
".. c #81342E",
"X. c #400000",
"o. c #C08ED3",
"O. c #FCED56",
"+. c #00FEA0",
"@. c #F7BF17",
"#. c #B3F7BF",
"$. c #000040",
"%. c #000000",
"&. c #000003",
"*. c #000000",
"=. c #382E40",
"-. c #001E00",
";. c #000034",
":. c #2E4000",
">. c #64F056",
",. c #00DB14",
"<. c #F37F00",
"1. c #004000",
"2. c #000000",
"3. c #00382E",
"4. c #400008",
"5. c #15F37F",
"6. c #0CD0FD",
"7. c #7F382E",
"8. c #400031",
"9. c #20F37F",
"0. c #382E40",
"q. c #00C6DE",
"w. c #F37F38",
"e. c #2E4000",
"r. c #000000",
"t. c #000401",
"y. c #00006D",
"u. c #DEF37F",
"i. c #54F056",
"p. c #00B8F4",
"a. c #560000",
"s. c #000000",
"d. c #1E0000",
"f. c #000002",
"g. c #0000AC",
"h. c #EE5600",
"j. c #7C26F3",
"k. c #7F88EE",
"l. c #5600A0",
"z. c #216681",
"x. c #1D0000",
"c. c #005D4D",
"v. c #4000F2",
"b. c #F45600",
"n. c #A0EE56",
"m. c #00E379",
"M. c #FBBF04",
"N. c #D4B081",
"B. c #000200",
"V. c #00F2F4",
"C. c #56005D",
"Z. c #4D4000",
"A. c #1D0000",
"S. c #003F00",
"D. c #B081D4",
"F. c #EE5600",
"G. c #B8F456",
"H. c #003F00",
"J. c #B08104",
"K. c #D4B081",
"L. c #3C4D40",
"P. c #007C4D",
"I. c #4000DC",
"U. c #EE5600",
"Y. c #32D1F7",
"T. c #BF04D4",
"R. c #B081B8",
"E. c #F45600",
"W. c #F4F456",
"Q. c #00404D",
"!. c #40003C",
"~. c #000000",
"^. c #3F00B0",
"/. c #81D4EE",
"(. c #560000",
"). c #020000",
"_. c #3C0000",
"`. c #00B8F4",
"'. c #560000",
"]. c #000000",
"[. c #E8EE56",
"{. c #000002",
"}. c #000004",
"|. c #EF5600",
" X c #9DD7F3",
".X c #7F0000",
"XX c #00001C",
"oX c #EF5600",
"OX c #A02166",
"+X c #813C4D",
"@X c #400000",
"#X c #C08ED3",
"$X c #1CEF56",
"%X c #00FEA0",
"&X c #F7BF17",
"*X c #B3F7BF",
"=X c #000040",
"-X c #000000",
";X c #00001D",
":X c #000000",
">X c #5EF056",
",X c #000000",
"<X c #008038",
"1X c #FFF7BF",
"2X c #5EF056",
"3X c #004C50",
"4X c #540003",
"5X c #000000",
"6X c #000000",
"7X c #000100",
"8X c #000008",
"9X c #15F37F",
"0X c #0CD0FD",
"qX c #7F404D",
"wX c #400031",
"eX c #20F37F",
"rX c #404D40",
"tX c #0027DE",
"yX c #F37F40",
"uX c #4D4000",
"iX c #B8F456",
"pX c #000000",
"aX c #00001E",
"sX c #000000",
"dX c #433A5C",
"fX c #57494E",
"gX c #444F57",
"hX c #535C42",
"jX c #757265",
"kX c #61755C",
"lX c #626967",
"zX c #677269",
"xX c #6E2E67",
"cX c #696600",
"vX c #0000B8",
"bX c #EF5600",
"nX c #F00000",
"mX c #000300",
"MX c #000000",
"NX c #000000",
"BX c #010000",
"VX c #00ADA3",
"CX c #F7BF05",
"ZX c #040000",
"AX c #FFFFFF",
"SX c #E72000",
"DX c #0000AD",
"FX c #A3F7BF",
"GX c #711608",
"HX c #00FFFF",
"JX c #FFFF40",
"KX c #000000",
"LX c #0C6060",
"PX c #810060",
"IX c #6081F0",
"UX c #0D6781",
/* pixels */
". . O . . . . . . . . . . . . . O . . ",
". O O O . . . . . . . . . . . O O O . ",
". O . O O . . . . . . . . . O O . O . ",
". O . . O O . . . . . . . O O . . O . ",
". O . . . O O O O O O O O O . . . O . ",
". O O . O O O nXnXnXnXnXO O O . O O . ",
". . O O O nXnXnXnXnXnXnXnXnXO O O . . ",
". . O O nXnXO O nXnXnXO O nXnXO O . . ",
". . O O nXO nXnXO nXO nXnXO nXO O . . ",
". . O nXnXnXnXnXnXnXnXnXnXnXnXnXO . . ",
". . O nXO O O O O O O O O O O nXO . . ",
". . O nXO     O       O     O nXO . . ",
". . O nXO     O       O     O nXO . . ",
". . O nXO     O       O     O nXO . . ",
". . . O nXO   O       O   O nXO . . . ",
". . . O nXnXO O       O O nXnXO . . . ",
". . . . O nXnXO O O O O nXnXO . . . . ",
". . . . . O O nXnXO nXnXO O . . . . . ",
". . . . . . O O O O O O O . . . . . . ",
". . . . . . O O O O O O O . . . . . . ",
". . . . . . . O O O O O . . . . . . . ",
". . . . . . . . O O O . . . . . . . . ",
". . . . . . . . . O . . . . . . . . . "
};
