/* XPM */
static char * love_xpm[] = {
"19 19 123 2",
"  	c None",
". 	c #723022",
"+ 	c #7D4337",
"@ 	c #824C41",
"# 	c #7A3E31",
"$ 	c #741A00",
"% 	c #D63F00",
"& 	c #FA4C00",
"* 	c #E84400",
"= 	c #A32900",
"- 	c #793A2C",
"; 	c #A92D00",
"> 	c #E54500",
", 	c #EA4400",
"' 	c #BA2E00",
") 	c #691500",
"! 	c #FF5302",
"~ 	c #FF6515",
"{ 	c #FF6414",
"] 	c #FF5F10",
"^ 	c #FF5B0C",
"/ 	c #C63B00",
"( 	c #5F1200",
"_ 	c #D54300",
": 	c #FD4A00",
"< 	c #DC3600",
"[ 	c #681300",
"} 	c #C43900",
"| 	c #FF6616",
"1 	c #FF701E",
"2 	c #FF6C1C",
"3 	c #FF6919",
"4 	c #FF6717",
"5 	c #BD3900",
"6 	c #FA5500",
"7 	c #FF6E1D",
"8 	c #FF5406",
"9 	c #F14100",
"0 	c #A32200",
"a 	c #76372A",
"b 	c #F44C00",
"c 	c #FF7120",
"d 	c #FF7222",
"e 	c #FF701F",
"f 	c #FF6F1F",
"g 	c #FF5B00",
"h 	c #BB3B00",
"i 	c #FF6F1D",
"j 	c #FF6817",
"k 	c #FF5609",
"l 	c #F44200",
"m 	c #C62B00",
"n 	c #7E4438",
"o 	c #692212",
"p 	c #FF5104",
"q 	c #FF7321",
"r 	c #FF7322",
"s 	c #E34E00",
"t 	c #FF6009",
"u 	c #FF5105",
"v 	c #F03F00",
"w 	c #D32D00",
"x 	c #712F20",
"y 	c #783B2E",
"z 	c #E94200",
"A 	c #FF5C0D",
"B 	c #FF6819",
"C 	c #FE5900",
"D 	c #FF6410",
"E 	c #FF590B",
"F 	c #FB4800",
"G 	c #E83800",
"H 	c #C02600",
"I 	c #824B40",
"J 	c #AA2900",
"K 	c #FF4C00",
"L 	c #FF6E1C",
"M 	c #FF6A18",
"N 	c #ED3D00",
"O 	c #DD3000",
"P 	c #8D1B00",
"Q 	c #702D1D",
"R 	c #C63100",
"S 	c #FC4900",
"T 	c #FF580A",
"U 	c #FF6B1A",
"V 	c #FF6A1A",
"W 	c #FF6213",
"X 	c #FF5608",
"Y 	c #EC3C00",
"Z 	c #DF3100",
"` 	c #A21F00",
" .	c #733122",
"..	c #A22500",
"+.	c #F64400",
"@.	c #FF5306",
"#.	c #FF5D0E",
"$.	c #FF6112",
"%.	c #F74500",
"&.	c #E83900",
"*.	c #D52D00",
"=.	c #871A00",
"-.	c #741800",
";.	c #D53900",
">.	c #FF4E02",
",.	c #F34100",
"'.	c #E53700",
").	c #BA2600",
"!.	c #6B1400",
"~.	c #631300",
"{.	c #BD2C00",
"].	c #EE3D00",
"^.	c #EA3A00",
"/.	c #E03400",
"(.	c #A92200",
"_.	c #651706",
":.	c #6F2C1D",
"<.	c #A72300",
"[.	c #D82C00",
"}.	c #9C1D00",
"|.	c #79392C",
"1.	c #9A1C00",
"2.	c #7C4135",
"                                      ",
"                                      ",
"          . +           @ #           ",
"      $ % & * = +   - ; > , ' )       ",
"    $ ! ~ { ] ^ / ( _ { { ^ : < [     ",
"    } | 1 1 2 3 4 5 6 7 7 ~ 8 9 0     ",
"  a b 3 c d c e f g h i c j k l m n   ",
"  o p | f q r r r r s t 7 { u v w x   ",
"  y z A B 1 c r r r C D 4 E F G H I   ",
"    J K A 4 L c c e M ~ E : N O P     ",
"    Q R S T { U L V W X F Y Z `       ",
"       ...+.@.#.$.#.u %.&.*.=.        ",
"          -.;.: >.: ,.'.).!.          ",
"            ~.{.].^./.(._.            ",
"              :.<.[.}.a               ",
"                |.1.2.                ",
"                                      ",
"                                      ",
"                                      "};
