/* XPM */
static char *p__[] = {
/* columns rows colors chars-per-pixel */
"15 15 8 1",
"  c #020202",
". c #C9EB3A",
"X c #FE2A4A",
"o c None",
"O c #FF0000",
"+ c #FF8040",
"@ c #FCF243",
"# c #000000",
/* pixels */
"ooooo     ooooo",
"ooo  .....  ooo",
"oo ......... oo",
"o ........... o",
"o ..  ...  .. o",
" ...  ...  ... ",
" ............. ",
" ............. ",
" . ......... . ",
" ..         .. ",
"o ... X X ... o",
"o ... XXX ... o",
"oo ...   ... oo",
"ooo  .....  ooo",
"ooooo     ooooo"
};
